<svg xmlns="http://www.w3.org/2000/svg" viewBox="0 0 362.01 294.51"><defs><style>.cls-1{fill:#231f20;}</style></defs><title>logoAsset 4</title><g id="Layer_2" data-name="Layer 2"><g id="Layer_1-2" data-name="Layer 1"><path class="cls-1" d="M249.72,43.76c.13.52.28,1,.4,1.57C250,44.8,249.86,44.27,249.72,43.76Z"/><path class="cls-1" d="M159,3.22c-46.44,10.19-70.66,39.06-63,74.13l15.24,69.46c2.77,12.64,9.05,22.78,18.15,30.11-10-12.07-15.59-28.9-15.59-49.4V86.29c0-.29,0-.58,0-.87L111.39,74C105,44.71,123.73,21.68,161.28,13.43c38.86-8.52,80.11.7,88.44,30.33C240.54,8.22,206.76-7.25,159,3.22Z"/><path class="cls-1" d="M266,110.37c3.81,18.74-6.66,35.64-23.9,48.12a61.54,61.54,0,0,1-11.29,18.64C258.76,162.87,271.87,139.14,266,110.37Z"/><path class="cls-1" d="M197.49,135.71c-2.63,10.52-6.14,14.91-18.13,14.91-10.53,0-16.08-7-16.08-23.1v-6.43H235.8V86.29c0-37.72-21.06-59.95-56.73-59.95-35.09,0-55.85,22.23-55.85,60v41.62c.15,38.07,20.88,60.73,55.56,60.73,21.2,0,37.43-7.41,47.54-20.85,6.34-8.43,10.29-19.23,11.53-32.08Zm-34.21-50c0-15.79,5.55-22.51,16.08-22.51,11.11,0,17,6.72,17,22.51v8.19H163.28Z"/><path class="cls-1" d="M36,245.85c-1.12,11.2-7.16,18.48-18.58,18.48C6.71,264.33,0,256.94,0,245.41V222.57C0,211,6.71,203.65,17.46,203.65S35,211,35,222.57v13.21H3.46v9.63c0,9.62,5.27,15.56,14,15.56,9.4,0,14.11-5.83,15.11-15.12ZM3.46,222.57v10.07H31.68V222.57c0-9.63-5.37-15.56-14.22-15.56S3.46,212.94,3.46,222.57Z"/><path class="cls-1" d="M76.94,263.21,62.27,236.68,47.38,263.21H43.46l16.8-29.45L44.13,204.88h3.92l14.22,25.64,14.1-25.64h3.92l-16,28.88L81,263.21Z"/><path class="cls-1" d="M125.66,222.9v22.39c0,11.54-7.16,19.15-17,19.15A16.56,16.56,0,0,1,94,255.93v27.43H90.5V204.88h3.14l.23,8.51c2.68-6.16,8.28-9.74,15.33-9.74C118.5,203.65,125.66,211.15,125.66,222.9Zm-3.47,0c0-10.07-5.71-16-13.77-16C101,206.89,94,213.05,94,224.36v21.72c0,8.51,5.93,15.11,14,15.11,8.39,0,14.22-6.05,14.22-15.9Z"/><path class="cls-1" d="M175.05,245.85c-1.12,11.2-7.16,18.48-18.58,18.48-10.75,0-17.46-7.39-17.46-18.92V222.57c0-11.53,6.71-18.92,17.46-18.92s17.58,7.39,17.58,18.92v13.21H142.47v9.63c0,9.62,5.27,15.56,14,15.56,9.4,0,14.11-5.83,15.11-15.12Zm-32.58-23.28v10.07h28.22V222.57c0-9.63-5.37-15.56-14.22-15.56S142.47,212.94,142.47,222.57Z"/><path class="cls-1" d="M223.56,225.25v38h-3.47V225.59c0-12.54-4.14-18.7-12-18.7-9,0-15.56,8.18-15.56,20.61v35.71h-3.48V204.88h3.14l.34,7.83v2c3.13-6.83,8.95-11.08,16.23-11.08C218,203.65,223.56,210.7,223.56,225.25Z"/><path class="cls-1" d="M235.45,247.42h3.37c.45,9.18,5.6,13.66,14.44,13.66,7.39,0,13.21-4.37,13.21-11.42,0-16.79-30.34-12.43-30.34-31.68,0-8.51,6.72-14.33,16-14.33,9.85,0,16.23,5.93,16.57,15.45h-3.47c-.22-7.84-5-12.21-13.1-12.21-7.28,0-12.54,4.37-12.54,11.2,0,16.12,30.23,11.87,30.23,31.68,0,8.73-7.28,14.67-16.57,14.67C242.62,264.44,235.79,258.28,235.45,247.42Z"/><path class="cls-1" d="M317.2,245.85c-1.12,11.2-7.17,18.48-18.59,18.48-10.75,0-17.46-7.39-17.46-18.92V222.57c0-11.53,6.71-18.92,17.46-18.92s17.58,7.39,17.58,18.92v13.21H284.62v9.63c0,9.62,5.27,15.56,14,15.56,9.41,0,14.11-5.83,15.11-15.12Zm-32.58-23.28v10.07h28.21V222.57c0-9.63-5.37-15.56-14.22-15.56S284.62,212.94,284.62,222.57Z"/><path class="cls-1" d="M327.63,247.42H331c.45,9.18,5.6,13.66,14.44,13.66,7.39,0,13.21-4.37,13.21-11.42,0-16.79-30.34-12.43-30.34-31.68,0-8.51,6.72-14.33,16-14.33,9.85,0,16.23,5.93,16.57,15.45h-3.47c-.22-7.84-5-12.21-13.1-12.21-7.28,0-12.54,4.37-12.54,11.2,0,16.12,30.23,11.87,30.23,31.68,0,8.73-7.28,14.67-16.57,14.67C334.8,264.44,328,258.28,327.63,247.42Z"/><path class="cls-1" d="M100.49,288.54v-7.16c0-3.62,2.07-5.94,5.37-5.94s5.52,2.32,5.55,6.11h-1.08c0-3.2-1.65-5.06-4.47-5.06-2.67,0-4.28,1.86-4.28,4.89v7.16c0,3,1.65,4.88,4.39,4.88s4.43-1.86,4.46-5.12h1.09c0,3.86-2.14,6.18-5.55,6.18S100.49,292.16,100.49,288.54Z"/><path class="cls-1" d="M141.44,281v13.1h-1l-.08-2.21c-.76,1.57-2.35,2.59-4.81,2.59-3.09,0-5.16-2.07-5.16-5.55s2.17-5.34,6.08-5.34h3.89V281c0-2.92-1.43-4.57-4.07-4.57a3.92,3.92,0,0,0-4.25,3.76H131a5,5,0,0,1,5.38-4.78C139.58,275.44,141.44,277.51,141.44,281Zm-1.06,7.65v-4h-3.89c-3.27,0-5,1.58-5,4.32s1.65,4.5,4.21,4.5C138.8,293.46,140.38,291.67,140.38,288.68Z"/><path class="cls-1" d="M162.09,268.77h1.09v25.36h-1.09Z"/><path class="cls-1" d="M183.32,288.54v-7.16c0-3.62,2.07-5.94,5.37-5.94s5.52,2.32,5.55,6.11h-1.09c0-3.2-1.64-5.06-4.46-5.06-2.67,0-4.28,1.86-4.28,4.89v7.16c0,3,1.65,4.88,4.39,4.88s4.43-1.86,4.46-5.12h1.09c0,3.86-2.14,6.18-5.55,6.18S183.32,292.16,183.32,288.54Z"/><path class="cls-1" d="M224.65,275.83v18.3h-1l-.11-2.46V291a5.52,5.52,0,0,1-5.09,3.47c-2.88,0-4.63-2.21-4.63-6.78v-11.9h1.09v11.8c0,3.93,1.3,5.86,3.75,5.86,2.81,0,4.88-2.56,4.88-6.46v-11.2Z"/><path class="cls-1" d="M245.26,268.77h1.09v25.36h-1.09Z"/><path class="cls-1" d="M277.18,281v13.1h-1l-.07-2.21c-.77,1.57-2.35,2.59-4.81,2.59-3.09,0-5.16-2.07-5.16-5.55s2.17-5.34,6.08-5.34h3.89V281c0-2.92-1.43-4.57-4.07-4.57a3.91,3.91,0,0,0-4.25,3.76h-1.09a5,5,0,0,1,5.38-4.78C275.31,275.44,277.18,277.51,277.18,281Zm-1.06,7.65v-4h-3.89c-3.27,0-5,1.58-5,4.32s1.65,4.5,4.21,4.5C274.55,293.46,276.12,291.67,276.12,288.68Z"/><path class="cls-1" d="M304.14,293.21v1h-.77c-3.13,0-4.74-1.61-4.74-4.85V276.81H296v-1h2.6v-4.32h1.08v4.32h4.15v1h-4.15v12.57c0,2.68,1.27,3.83,3.66,3.83Z"/><path class="cls-1" d="M322.68,288.51v-7.1c0-3.65,2.14-6,5.62-6s5.58,2.32,5.58,6v7.1c0,3.65-2.14,6-5.58,6S322.68,292.16,322.68,288.51Zm10.11,0v-7.1c0-3.06-1.68-4.92-4.49-4.92s-4.53,1.86-4.53,4.92v7.1c0,3.05,1.72,4.95,4.53,4.95S332.79,291.56,332.79,288.51Z"/><path class="cls-1" d="M362,275.65v1.16a6.67,6.67,0,0,0-2.11-.32c-2.77,0-4.81,2.57-4.81,6.43v11.14H354V275.83h1l.1,2.31v.78a5.47,5.47,0,0,1,5-3.48A7.9,7.9,0,0,1,362,275.65Z"/></g></g></svg>