<svg xmlns="http://www.w3.org/2000/svg" viewBox="0 0 78.77 48"><defs><style>.cls-1{fill:#fff;}.cls-2{fill:#231f20;}</style></defs><title>email-iconAsset 1</title><g id="Layer_2" data-name="Layer 2"><g id="Layer_1-2" data-name="Layer 1"><rect class="cls-1" width="78.77" height="48" rx="3.71"/><path class="cls-2" d="M5.05,2.87c7.54,4.42,15,8.92,22.66,13.13,1.9,1.06,3.81,2.12,5.73,3.12,1,.5,1.93,1,2.9,1.45a19.89,19.89,0,0,0,2.85,1.14l.19,0,.17,0a5.89,5.89,0,0,0,.65-.24c.47-.21.95-.43,1.42-.67,1-.48,1.91-1,2.85-1.52,1.89-1.05,3.77-2.16,5.64-3.27,3.73-2.24,7.44-4.54,11.14-6.83L66.8,5.68l2.76-1.75c.25-.15.41-.27.74-.46a3,3,0,0,1,1.35-.41,3.18,3.18,0,0,1,2.53,1,3.53,3.53,0,0,1,.89,2.41V18l0,13.1,0,6.55V40.5a3.7,3.7,0,0,1-.07.66,3.44,3.44,0,0,1-1.54,2.21,3.15,3.15,0,0,1-1.36.46l-.34,0h-.62L58.09,43.8c-8.74-.08-17.47-.1-26.2-.23l-13.1-.18-6.55-.11L9,43.22l-1.64,0H6.91a2.61,2.61,0,0,1-.56-.08,2.4,2.4,0,0,1-1-.52,2.7,2.7,0,0,1-.94-1.9c0-.66,0-1.12,0-1.69l.08-3.27.16-6.55q.15-6.55.38-13.1.23,6.54.37,13.1l.16,6.55L5.66,39c0,.52,0,1.15,0,1.58a1.27,1.27,0,0,0,1,1.15l.24,0h.4l1.64,0,3.27-.06,6.55-.12,13.1-.17c8.73-.14,17.46-.16,26.2-.24l13.09,0h.69A.29.29,0,0,0,72,41a.65.65,0,0,0,.27-.42.61.61,0,0,0,0-.14V37.61l0-6.55,0-13.1V6.5a.8.8,0,0,0-.17-.6.49.49,0,0,0-.39-.19.34.34,0,0,0-.21,0l-.65.4-2.8,1.71-5.6,3.4q-5.62,3.39-11.33,6.62C49.31,19,47.39,20,45.44,21.06c-1,.51-1.95,1-3,1.48-.5.24-1,.47-1.56.68a8,8,0,0,1-.9.29,3.27,3.27,0,0,1-.63.09,5.77,5.77,0,0,1-.62-.09,20,20,0,0,1-3.19-1.39c-1-.51-2-1-2.9-1.58-1.91-1.09-3.79-2.2-5.66-3.35-3.72-2.3-7.4-4.66-11.06-7S8.65,5.35,5.05,2.87Z"/></g></g></svg>