<svg xmlns="http://www.w3.org/2000/svg" viewBox="0 0 53.88 78.71"><defs><style>.cls-1{fill:#fff;}.cls-2{fill:#231f20;}</style></defs><title>pass-iconAsset 2</title><g id="Layer_2" data-name="Layer 2"><g id="Layer_1-2" data-name="Layer 1"><path class="cls-1" d="M48.23,34.35s0-.08,0-.11C48.24,15.33,38.7,0,26.94,0S5.65,15.33,5.65,34.24v.11A6.88,6.88,0,0,0,0,41.12v30.7a6.89,6.89,0,0,0,6.88,6.89H47a6.89,6.89,0,0,0,6.88-6.89V41.12A6.88,6.88,0,0,0,48.23,34.35ZM26.94,8.5c5.92,0,12.79,11.24,12.79,25.74H14.15C14.15,19.74,21,8.5,26.94,8.5Z"/><path class="cls-2" d="M6.88,73a1.23,1.23,0,0,1-1.16-.84,7.74,7.74,0,0,1-.06-1.52l0-3.05,0-6.1L5.47,49.32l-.11-6.1,0-1.52c0-.28,0-.46,0-.82A1.51,1.51,0,0,1,5.75,40a1.64,1.64,0,0,1,.87-.46,5.31,5.31,0,0,0,.68-.2,5.27,5.27,0,0,0,1.25-.64,5.35,5.35,0,0,0,1.76-2.13,6.07,6.07,0,0,0,.39-1.32,9.34,9.34,0,0,0,.05-1.42c0-1,0-2.07.05-3.1s.12-2.06.24-3.08a41,41,0,0,1,3.17-12,26.8,26.8,0,0,1,3.21-5.45,16.75,16.75,0,0,1,4.79-4.41c.51-.25,1-.51,1.54-.74s1.11-.36,1.68-.48a11.76,11.76,0,0,1,1.78-.14l.89.07a3.52,3.52,0,0,1,.87.15A13,13,0,0,1,34.82,8a25.46,25.46,0,0,1,4,5.1c.5.94,1.06,1.86,1.46,2.83l.65,1.46.56,1.48a44.59,44.59,0,0,1,2.38,12.33l.07,3.14a4.33,4.33,0,0,0,2.19,3.9,4,4,0,0,0,1.09.45l.36.09a2.46,2.46,0,0,1,1.7,1.43,2.54,2.54,0,0,1,.17.75v1.24l0,1.53-.07,3.05-.13,6.1L48.93,65l-.14,6.1,0,.8a1.79,1.79,0,0,1-.42,1,1.74,1.74,0,0,1-.92.56,1.62,1.62,0,0,1-.51,0h-.38l-3-.07-12.2-.24-12.21-.15Zm0,0L19.08,73l12.21-.14,12.2-.25,3-.07a2.57,2.57,0,0,0,.63,0,.65.65,0,0,0,.34-.23.62.62,0,0,0,.14-.38l0-.73L47.5,65,47,41.12s0,0,0,0h0l-.39-.08a7.34,7.34,0,0,1-1.74-.66,7,7,0,0,1-3.65-6.14l-.11-3a41.74,41.74,0,0,0-2.32-11.54l-.5-1.38-.59-1.34a27.31,27.31,0,0,0-1.31-2.59,22.75,22.75,0,0,0-3.45-4.54,10.91,10.91,0,0,0-4.56-2.77,6.66,6.66,0,0,0-5,.74,15.69,15.69,0,0,0-4.26,3.66A24.85,24.85,0,0,0,16,16.47a39.49,39.49,0,0,0-3.52,11.36c-.16,1-.24,2-.36,3s-.12,2-.18,3a10.44,10.44,0,0,1-.14,1.62A6.35,6.35,0,0,1,11.22,37,6.07,6.07,0,0,1,9,39.43a5.6,5.6,0,0,1-1.49.69,5.35,5.35,0,0,1-.79.19.81.81,0,0,0-.47.23A.78.78,0,0,0,6,41c0,.15,0,.48,0,.71l0,1.52-.11,6.1L5.72,61.53l0,6.1,0,3.05a9.49,9.49,0,0,0,.05,1.51A1.24,1.24,0,0,0,6.88,73Z"/><path class="cls-2" d="M30.4,57.79A4,4,0,0,0,31,55.64a4.08,4.08,0,1,0-8.16,0,4,4,0,0,0,.63,2.15,5.78,5.78,0,1,0,6.91,0Z"/></g></g></svg>